<?xml version="1.0" encoding="iso-8859-1"?>
<!-- Uploaded to: SVG Repo, www.svgrepo.com, Generator: SVG Repo Mixer Tools -->
<svg version="1.1" id="Layer_1" xmlns="http://www.w3.org/2000/svg" xmlns:xlink="http://www.w3.org/1999/xlink" 
	 viewBox="0 0 511.994 511.994" xml:space="preserve">
<g>
	<circle style="fill:#E30613;" cx="392.022" cy="88.057" r="24.005"/>
	<circle style="fill:#E30613;" cx="119.969" cy="88.057" r="24.005"/>
	<rect x="151.976" y="8.046" style="fill:#E30613;" width="208.039" height="32.006"/>
</g>
<circle style="fill:#F9B233;" cx="255.995" cy="48.052" r="40.006"/>
<circle style="fill:#FFFFFF;" cx="255.995" cy="48.052" r="16.002"/>
<path style="fill:#F9B233;" d="M258.285,112.064h-4.582c-65.02,0-117.73,52.709-117.73,117.73v194.324h240.041V229.794
	C376.015,164.773,323.306,112.064,258.285,112.064z"/>
<rect x="135.978" y="376.108" style="fill:#E30613;" width="240.045" height="48.008"/>
<rect x="215.99" y="392.116" style="fill:#575756;" width="80.012" height="112.018"/>
<rect x="191.982" y="360.109" style="fill:#E30613;" width="128.016" height="32.006"/>
<g>
	<rect x="167.974" y="240.228" style="fill:#FFFFFF;" width="16.003" height="15.726"/>
	<rect x="191.982" y="240.228" style="fill:#FFFFFF;" width="16.003" height="15.726"/>
	<rect x="215.99" y="240.228" style="fill:#FFFFFF;" width="16.003" height="15.726"/>
</g>
<g>
	<rect x="104.108" y="384.107" style="fill:#1D1D1B;" width="15.726" height="32.006"/>
	<rect x="63.965" y="384.253" style="fill:#1D1D1B;" width="32.006" height="15.726"/>
	<rect x="392.158" y="384.107" style="fill:#1D1D1B;" width="15.726" height="32.006"/>
	<rect x="416.019" y="384.253" style="fill:#1D1D1B;" width="32.005" height="15.726"/>
	<rect x="207.991" y="352.247" style="fill:#1D1D1B;" width="96.02" height="15.726"/>
	<rect x="336.007" y="368.245" style="fill:#1D1D1B;" width="24.003" height="15.726"/>
	<rect x="151.976" y="368.245" style="fill:#1D1D1B;" width="24.005" height="15.726"/>
	<path style="fill:#1D1D1B;" d="M255.993,71.919c-13.159,0-23.865-10.706-23.865-23.866s10.706-23.865,23.865-23.865
		c13.16,0,23.866,10.706,23.866,23.865S269.154,71.919,255.993,71.919z M255.993,39.913c-4.488,0-8.14,3.651-8.14,8.14
		s3.65,8.141,8.14,8.141c4.489,0,8.141-3.651,8.141-8.141S260.483,39.913,255.993,39.913z"/>
	<rect x="376.149" y="0.044" style="fill:#1D1D1B;" width="15.726" height="24.003"/>
	<rect x="400.021" y="0.184" style="fill:#1D1D1B;" width="48.008" height="15.726"/>
	
		<rect x="115.887" y="4.19" transform="matrix(-0.0064 -1 1 -0.0064 116.6558 140.0168)" style="fill:#1D1D1B;" width="24.005" height="15.726"/>
	<rect x="64.364" y="0.184" style="fill:#1D1D1B;" width="47.596" height="15.726"/>
	<path style="fill:#1D1D1B;" d="M392.018,56.193c-14.859,0-27.373,10.223-30.883,24.003h-9.263V47.914h16.003V0.184H144.113v47.731
		h16.003v32.282h-9.262c-3.511-13.781-16.024-24.003-30.883-24.003c-17.572,0-31.866,14.296-31.866,31.866
		s14.296,31.866,31.866,31.866c14.859,0,27.373-10.223,30.883-24.003h24.988V47.914h32.286c0,0.046-0.003,0.092-0.003,0.138
		c0,23.717,17.341,43.45,40.007,47.213v9.184c-66.866,4.076-120.02,59.76-120.02,127.635V431.98h71.874v-15.726h-56.149v-184.17
		c0-59.2,46.106-107.828,104.294-111.878v152.345c-35.853,3.36-64.011,33.613-64.011,70.33v57.093h24.003v112.019h95.739V399.975
		h24.003v-57.093c0-36.717-28.157-66.971-64.011-70.33V120.207c58.19,4.05,104.295,52.677,104.295,111.878v184.17h-56.149v15.726
		h71.874V232.084c0-67.875-53.154-123.558-120.021-127.635v-9.184c22.667-3.763,40.007-23.496,40.007-47.213
		c0-0.046-0.003-0.092-0.003-0.138h32.286v48.008h24.989c3.511,13.781,16.024,24.003,30.883,24.003
		c17.572,0,31.866-14.296,31.866-31.866S409.589,56.193,392.018,56.193z M119.97,104.201c-8.9,0-16.141-7.241-16.141-16.141
		s7.241-16.141,16.141-16.141s16.141,7.241,16.141,16.141S128.871,104.201,119.97,104.201z M159.839,32.189V15.909h60.713
		c-4.247,4.678-7.573,10.202-9.715,16.28h-50.998V32.189z M288.139,496.269H223.85v-96.294h64.288V496.269z M312.142,342.882v41.368
		h-8.278h-95.739h-8.278v-41.368c0-30.286,24.64-54.926,54.927-54.926h2.444C287.502,287.955,312.142,312.595,312.142,342.882z
		 M255.993,80.197c-17.724,0-32.144-14.419-32.144-32.144c0-17.724,14.42-32.144,32.144-32.144s32.144,14.419,32.144,32.144
		C288.139,65.777,273.718,80.197,255.993,80.197z M291.436,15.909h60.713v16.28H301.15
		C299.009,26.111,295.683,20.587,291.436,15.909z M392.018,104.201c-8.9,0-16.141-7.241-16.141-16.141s7.241-16.141,16.141-16.141
		s16.141,7.241,16.141,16.141S400.918,104.201,392.018,104.201z"/>
</g>
</svg>